<?xml version="1.0" standalone="no"?><!DOCTYPE svg PUBLIC "-//W3C//DTD SVG 1.1//EN" "http://www.w3.org/Graphics/SVG/1.1/DTD/svg11.dtd"><svg class="icon" width="200px" height="200.00px" viewBox="0 0 1024 1024" version="1.1" xmlns="http://www.w3.org/2000/svg"><path fill="#969492" d="M810.8 64.5H212.3c-81.6 0-148 66.4-148 148V811c0 81.6 66.4 148 148 148h598.5c81.6 0 148-66.4 148-148V212.5c0-81.6-66.4-148-148-148z m-598.5 56h598.5c50.7 0 92 41.3 92 92V811c0 16.5-4.4 32-12 45.4L695.4 666.8c-16.9-16.3-39.1-25.3-62.6-25.3s-45.7 9-62.6 25.3l-47.5 45.9c-8.6 8.3-22 8.3-30.6 0L351.5 576.8c-14.6-14.1-33.9-21.9-54.2-21.9s-39.6 7.8-54.2 21.9L120.3 695.5v-483c0-50.7 41.2-92 92-92z m0 782.6c-50.7 0-92-41.3-92-92v-37.7l161.8-156.2c8.6-8.3 22-8.3 30.6 0L453.3 753c14.6 14.1 33.9 21.9 54.2 21.9 20.3 0 39.6-7.8 54.2-21.9l47.5-45.9c13.3-12.8 34.1-12.8 47.3-0.1l193.1 187.5c-11.8 5.5-24.9 8.6-38.8 8.6H212.3z"  /><path fill="#969492" d="M667.3 510.4c-80.2 0-145.5-65.3-145.5-145.5s65.3-145.5 145.5-145.5 145.5 65.3 145.5 145.5-65.3 145.5-145.5 145.5z m0-234.9c-49.3 0-89.5 40.1-89.5 89.5s40.1 89.5 89.5 89.5 89.5-40.1 89.5-89.5-40.2-89.5-89.5-89.5z"  /></svg>